<svg width="149" height="40" viewBox="0 0 149 40" fill="none" xmlns="http://www.w3.org/2000/svg">
<path d="M35.1826 26.8196C34.6082 27.9066 33.7114 28.7842 32.492 29.4493C31.2693 30.1143 29.7309 30.4484 27.8734 30.4484H24.081V39.3669H19.543V16.1357H27.8734C29.6234 16.1357 31.1148 16.4462 32.3476 17.0673C33.5804 17.6885 34.5041 18.5425 35.1188 19.6295C35.7335 20.7164 36.0425 21.9485 36.0425 23.3224C36.0425 24.5647 35.757 25.7293 35.1826 26.8162V26.8196ZM30.4665 25.8035C31.0712 25.2162 31.3735 24.3891 31.3735 23.3258C31.3735 21.0641 30.1407 19.9299 27.6785 19.9299H24.081V26.6846H27.6785C28.9315 26.6846 29.8619 26.3909 30.4665 25.8035Z" fill="#424530"/>
<path d="M45.2933 38.0673C43.5197 37.0479 42.1156 35.6335 41.0777 33.8241C40.0397 32.0148 39.5225 29.9691 39.5225 27.6838C39.5225 25.3985 40.0397 23.3866 41.0777 21.5772C42.1156 19.7679 43.5197 18.3535 45.2933 17.334C47.0668 16.3146 49.0117 15.8048 51.1279 15.8048C53.2441 15.8048 55.2192 16.3146 56.9793 17.334C58.7395 18.3535 60.1335 19.7679 61.1613 21.5772C62.1892 23.3866 62.6998 25.4221 62.6998 27.6838C62.6998 29.9455 62.1858 32.0148 61.1613 33.8241C60.1335 35.6335 58.7361 37.0479 56.9625 38.0673C55.189 39.0868 53.2441 39.5965 51.1279 39.5965C49.0117 39.5965 47.0635 39.0868 45.2933 38.0673ZM54.7288 34.4891C55.7667 33.8579 56.5763 32.9532 57.1607 31.7785C57.7452 30.6037 58.0374 29.24 58.0374 27.6838C58.0374 26.1276 57.7452 24.7706 57.1607 23.606C56.5763 22.4414 55.7667 21.5468 54.7288 20.9257C53.6909 20.3046 52.4917 19.994 51.1313 19.994C49.7709 19.994 48.565 20.3046 47.517 20.9257C46.4689 21.5468 45.6527 22.4414 45.0682 23.606C44.4837 24.7706 44.1915 26.131 44.1915 27.6838C44.1915 29.2366 44.4837 30.6004 45.0682 31.7785C45.6527 32.9532 46.4689 33.8579 47.517 34.4891C48.565 35.1204 49.7709 35.4377 51.1313 35.4377C52.4917 35.4377 53.6909 35.1204 54.7288 34.4891Z" fill="#424530"/>
<path d="M83.7607 26.8196C83.1863 27.9066 82.2895 28.7842 81.0702 29.4493C79.8475 30.1143 78.309 30.4484 76.4515 30.4484H72.6591V39.3669H68.1211V16.1357H76.4515C78.2016 16.1357 79.693 16.4462 80.9257 17.0673C82.1585 17.6885 83.0822 18.5425 83.6969 19.6295C84.3116 20.7164 84.6207 21.9485 84.6207 23.3224C84.6207 24.5647 84.3351 25.7293 83.7607 26.8162V26.8196ZM79.0447 25.8035C79.6493 25.2162 79.9516 24.3891 79.9516 23.3258C79.9516 21.0641 78.7188 19.9299 76.2567 19.9299H72.6591V26.6846H76.2567C77.5096 26.6846 78.44 26.3909 79.0447 25.8035Z" fill="#424530"/>
<path d="M94.6377 16.1357V39.3636H90.0996V16.1357H94.6377Z" fill="#424530"/>
<path d="M120.737 39.3636H116.199L105.92 23.4237V39.3636H101.382V16.1019H105.92L116.199 32.0755V16.1019H120.737V39.3636Z" fill="#424530"/>
<path d="M143.236 23.1266C142.719 22.1511 142.003 21.4084 141.096 20.8953C140.189 20.3856 139.128 20.1291 137.919 20.1291C136.578 20.1291 135.389 20.4396 134.351 21.0607C133.313 21.6819 132.504 22.5697 131.919 23.7241C131.335 24.8786 131.043 26.2086 131.043 27.7175C131.043 29.2265 131.338 30.624 131.933 31.7785C132.527 32.9329 133.354 33.8207 134.412 34.4419C135.47 35.063 136.703 35.3735 138.107 35.3735C139.837 35.3735 141.251 34.9009 142.352 33.9591C143.454 33.0173 144.18 31.7008 144.526 30.0164H136.746V26.455H149V30.516C148.698 32.1363 148.049 33.6317 147.055 35.009C146.061 36.3862 144.781 37.4867 143.212 38.3205C141.644 39.1509 139.89 39.5695 137.945 39.5695C135.762 39.5695 133.79 39.0665 132.03 38.0538C130.27 37.0445 128.886 35.6402 127.882 33.8444C126.877 32.0485 126.374 30.0062 126.374 27.7209C126.374 25.4356 126.877 23.3899 127.882 21.5806C128.886 19.7712 130.27 18.3636 132.03 17.3543C133.79 16.3449 135.752 15.8386 137.915 15.8386C140.465 15.8386 142.682 16.4766 144.563 17.7526C146.444 19.0286 147.74 20.8211 148.452 23.1266H143.233H143.236Z" fill="#424530"/>
<path d="M3.54733 36.6631C3.35922 36.9162 3.25173 37.1897 3.23158 37.4901C3.21143 37.7905 3.27861 38.091 3.43648 38.3948C3.59435 38.6986 3.80262 38.9349 4.06798 39.1037C4.33334 39.2724 4.62894 39.3602 4.95812 39.367C5.28731 39.3703 5.62321 39.2859 5.95911 39.1104C6.29838 38.9349 6.56038 38.7087 6.74177 38.4387C6.92316 38.1686 7.02393 37.8715 7.03736 37.5576C7.0508 37.2437 6.98026 36.9331 6.82238 36.6327C6.60405 36.2107 6.29837 35.9272 5.90537 35.7854C5.51236 35.6436 5.08912 35.6605 4.63565 35.8394L5.52916 37.5677L5.07233 37.8074L3.86644 35.4748L4.29975 35.2487C4.6726 35.0967 5.05554 35.0394 5.44854 35.0765C5.84155 35.1136 6.20432 35.2419 6.53687 35.4647C6.86941 35.6875 7.13478 35.9879 7.3296 36.3694C7.53786 36.7711 7.63191 37.1863 7.61512 37.6184C7.59832 38.0471 7.47404 38.4454 7.2389 38.8133C7.00377 39.1813 6.67795 39.475 6.25471 39.6944C5.83483 39.9138 5.40487 40.0151 4.9682 39.9982C4.53153 39.9813 4.13516 39.8564 3.77574 39.6201C3.41633 39.3872 3.13417 39.0699 2.92591 38.6648C2.68742 38.2057 2.59 37.7365 2.63367 37.2639C2.67734 36.7913 2.86544 36.366 3.19463 35.9879L3.54397 36.6664L3.54733 36.6631Z" fill="#424530"/>
<path d="M5.32411 30.8502L3.68154 32.4671L3.86965 33.2131L5.79773 32.7236L5.95225 33.3414L1.23952 34.5398L0.853238 33.0106C0.762544 32.6528 0.749105 32.3355 0.806209 32.0586C0.863312 31.7818 0.984238 31.5557 1.15891 31.3801C1.33694 31.2046 1.55527 31.0831 1.824 31.0156C2.14982 30.9312 2.45885 30.9548 2.75445 31.0797C3.05004 31.2046 3.28517 31.4443 3.45984 31.7987L5.136 30.1075L5.32411 30.8468V30.8502ZM3.37587 33.3414L3.14745 32.43C3.06348 32.0958 2.91904 31.8629 2.71078 31.738C2.50252 31.6131 2.26403 31.5827 1.98859 31.6536C1.70979 31.7245 1.51497 31.8629 1.40076 32.0654C1.28991 32.2713 1.27647 32.5414 1.36045 32.8823L1.58886 33.7937L3.37251 33.338L3.37587 33.3414Z" fill="#424530"/>
<path d="M0.644933 28.6729L2.26735 28.575L2.16321 26.7994L2.68387 26.769L2.78799 28.5446L4.45743 28.4433L4.33987 26.4551L4.86052 26.4247L5.01503 29.0476L0.154515 29.3379L0 26.715L0.520648 26.6846L0.638214 28.6729H0.644933Z" fill="#424530"/>
<path d="M0.658143 24.1832L2.27384 24.3655L2.47202 22.5967L2.99267 22.654L2.79449 24.4229L4.45721 24.6119L4.67891 22.6338L5.19955 22.6912L4.90732 25.3039L0.0703125 24.7571L0.362547 22.1443L0.883198 22.2017L0.661503 24.1798L0.658143 24.1832Z" fill="#424530"/>
<path d="M6.56003 17.9653L6.36185 18.5729L1.88762 19.8016L5.56576 21.0101L5.36757 21.6177L0.742188 20.0953L0.940369 19.4877L5.40788 18.2556L1.73646 17.0471L1.93464 16.4395L6.56003 17.9619V17.9653Z" fill="#424530"/>
<path d="M9.62046 12.9794L7.33296 12.7364L6.87949 13.3575L8.48175 14.539L8.10554 15.0521L4.18555 12.1659L5.11264 10.8933C5.33098 10.5962 5.56275 10.3802 5.81468 10.2519C6.0666 10.1236 6.31517 10.0696 6.56038 10.0932C6.80559 10.1169 7.04072 10.2114 7.26242 10.3768C7.53114 10.576 7.71253 10.8291 7.80658 11.1363C7.89728 11.4435 7.86369 11.7811 7.70245 12.1423L10.0672 12.3617L9.6171 12.9794H9.62046ZM6.46969 13.0571L7.02057 12.3009C7.22547 12.0207 7.30944 11.7608 7.2725 11.5211C7.23555 11.2815 7.10455 11.0756 6.87613 10.9068C6.64436 10.7346 6.41258 10.6705 6.18417 10.7144C5.95576 10.7582 5.74078 10.9203 5.53252 11.2038L4.98164 11.96L6.46633 13.0537L6.46969 13.0571Z" fill="#424530"/>
<path d="M8.30343 7.9733L9.41191 9.16828L10.7051 7.95304L11.0612 8.33787L9.76797 9.55311L10.91 10.7818L12.3578 9.42483L12.7138 9.80966L10.8026 11.6021L7.48047 8.02731L9.39176 6.23483L9.74782 6.61966L8.30007 7.97667L8.30343 7.9733Z" fill="#424530"/>
<path d="M14.0914 8.64508C13.8159 8.68558 13.564 8.65858 13.3322 8.56406C13.1004 8.46954 12.9123 8.31089 12.7679 8.09147L13.3389 7.7269C13.48 7.90918 13.6648 8.02058 13.8865 8.06109C14.1082 8.10497 14.3534 8.04083 14.6221 7.86868C14.8774 7.70664 15.0386 7.51423 15.1024 7.29144C15.1696 7.06864 15.1394 6.85598 15.0117 6.65681C14.911 6.49816 14.7867 6.40026 14.6389 6.35638C14.4911 6.3125 14.3366 6.30574 14.172 6.3395C14.0107 6.36988 13.7991 6.42727 13.5438 6.50828C13.2281 6.60955 12.9661 6.67707 12.7578 6.71082C12.5496 6.74458 12.3413 6.72095 12.1297 6.64331C11.9181 6.56567 11.73 6.39689 11.5687 6.14371C11.4277 5.91754 11.3571 5.68462 11.3605 5.4382C11.3638 5.19178 11.4377 4.95548 11.5855 4.72931C11.7333 4.50314 11.9382 4.30398 12.2036 4.1352C12.5865 3.88877 12.9627 3.78413 13.3322 3.82126C13.6984 3.85839 14.0007 4.02718 14.2324 4.32423L13.6446 4.69893C13.5237 4.55378 13.3557 4.46601 13.134 4.439C12.9123 4.412 12.6839 4.47276 12.4421 4.62804C12.217 4.76982 12.0726 4.94535 12.0054 5.15127C11.9382 5.35718 11.9685 5.56647 12.1028 5.77577C12.1969 5.92429 12.3178 6.02219 12.4622 6.0627C12.6067 6.1032 12.7545 6.10996 12.9123 6.07958C13.0669 6.04919 13.2751 5.99518 13.5405 5.91417C13.8596 5.81627 14.1216 5.75214 14.3332 5.71838C14.5448 5.68462 14.7564 5.70825 14.9714 5.78589C15.1864 5.86353 15.3745 6.03232 15.5391 6.29224C15.6667 6.49478 15.7339 6.71758 15.7406 6.96062C15.7474 7.20705 15.6802 7.45009 15.5425 7.69314C15.4047 7.93619 15.1931 8.14886 14.911 8.32777C14.6389 8.49992 14.3668 8.60794 14.0914 8.64845V8.64508Z" fill="#424530"/>
<path d="M18.206 1.29962L18.3975 1.78234L17.1647 2.27181L18.7636 6.33273L18.1724 6.56903L16.5735 2.50811L15.334 3.00095L15.1426 2.51823L18.2027 1.29962H18.206Z" fill="#424530"/>
<path d="M23.5064 4.01365L21.4171 4.37823L21.2189 5.51582L20.5605 5.6306L21.4641 0.543477L22.1863 0.418579L24.7392 4.90145L24.0808 5.01623L23.5098 4.01365H23.5064ZM23.2377 3.53431L21.9512 1.25574L21.5078 3.83812L23.2377 3.53431Z" fill="#424530"/>
<path d="M26.4659 0.0337561L26.3148 3.12248C26.2946 3.55794 26.3819 3.88539 26.5835 4.1048C26.785 4.32422 27.0739 4.44574 27.4501 4.46262C27.823 4.4795 28.1186 4.39173 28.3403 4.18919C28.5619 3.99003 28.6829 3.67272 28.703 3.23726L28.8542 0.14853L29.489 0.17891L29.3379 3.25751C29.3177 3.66259 29.2203 4.00016 29.0456 4.27021C28.871 4.54026 28.6392 4.73605 28.357 4.85757C28.0749 4.9791 27.7625 5.03311 27.4165 5.01623C27.0739 4.99935 26.7649 4.91496 26.4961 4.76643C26.2274 4.6179 26.0192 4.40186 25.8714 4.11493C25.7236 3.828 25.6597 3.48368 25.6799 3.0786L25.8311 0L26.4659 0.0303823V0.0337561Z" fill="#424530"/>
<path d="M32.878 5.93778L32.2767 3.70647L31.5344 3.50731L31.0171 5.43481L30.4058 5.2694L31.6688 0.550232L33.1837 0.958686C33.5397 1.0532 33.8219 1.19498 34.0335 1.38402C34.2451 1.57305 34.3829 1.78572 34.45 2.02539C34.5172 2.26507 34.5139 2.51824 34.4433 2.78492C34.356 3.10898 34.188 3.37228 33.9327 3.56807C33.6808 3.76723 33.355 3.855 32.962 3.83475L33.6103 6.1302L32.8746 5.93103L32.878 5.93778ZM31.6688 3.01109L32.5723 3.25413C32.9049 3.34528 33.177 3.3284 33.3852 3.21025C33.5968 3.08873 33.7379 2.89294 33.8118 2.61613C33.8857 2.33595 33.8622 2.09628 33.7413 1.9005C33.617 1.70133 33.3886 1.55955 33.0527 1.46841L32.1491 1.22536L31.6721 3.01109H31.6688Z" fill="#424530"/>
<path d="M37.6243 6.8661L35.7399 5.88716L34.8968 6.67369L34.3022 6.36313L38.0845 2.85919L38.7362 3.19676L38.0711 8.31763L37.4765 8.01045L37.6277 6.8661H37.6243ZM37.7016 6.32262L38.0476 3.72674L36.1396 5.51246L37.7016 6.32262Z" fill="#424530"/>
<path d="M41.6857 11.3118L41.202 10.9L41.763 6.27535L39.2571 9.23918L38.7734 8.82735L41.9276 5.10062L42.4113 5.51245L41.8537 10.1337L44.3562 7.17665L44.8398 7.58848L41.6857 11.3152V11.3118Z" fill="#424530"/>
<path d="M48.1484 11.6021L47.7419 11.9195L46.929 10.8662L43.4961 13.5431L43.1064 13.0402L46.5394 10.3633L45.7231 9.30669L46.1296 8.98938L48.1484 11.6021Z" fill="#424530"/>
</svg>
