<?xml version="1.0" encoding="utf-8"?>
<!-- Generator: Adobe Illustrator 26.5.0, SVG Export Plug-In . SVG Version: 6.00 Build 0)  -->
<svg version="1.1" id="Calque_1" xmlns="http://www.w3.org/2000/svg" xmlns:xlink="http://www.w3.org/1999/xlink" x="0px" y="0px"
	 viewBox="0 0 279 231.9" style="enable-background:new 0 0 279 231.9;" xml:space="preserve">
<style type="text/css">
	.st0{fill:#FF5659;}
</style>
<path class="st0" d="M202,154.2c-3.2,6.1-8.3,11-15.1,14.7c-6.9,3.7-15.6,5.6-26,5.6h-21.4v50h-25.6V94.3h46.9
	c9.9,0,18.2,1.7,25.2,5.2s12.1,8.3,15.6,14.4s5.2,13,5.2,20.7C206.8,141.6,205.2,148.1,202,154.2L202,154.2z M175.4,148.5
	c3.4-3.3,5.1-7.9,5.1-13.9c0-12.7-6.9-19-20.8-19h-20.3v37.9h20.3C166.8,153.4,172,151.8,175.4,148.5z"/>
<g>
	<path class="st0" d="M23.9,209.3c-1.1,1.4-1.7,3-1.8,4.6s0.3,3.4,1.1,5.1c0.9,1.7,2.1,3,3.5,4c1.5,1,3.1,1.4,5,1.5
		c1.9,0,3.7-0.5,5.6-1.4c1.9-1,3.4-2.2,4.4-3.8s1.6-3.2,1.7-4.9s-0.3-3.5-1.2-5.2c-1.2-2.4-3-4-5.2-4.8c-2.2-0.8-4.6-0.7-7.1,0.3
		l5,9.7l-2.6,1.3l-6.8-13.1l2.4-1.3c2.1-0.9,4.2-1.2,6.5-1c2.2,0.2,4.3,0.9,6.1,2.2c1.9,1.2,3.4,2.9,4.5,5.1c1.2,2.2,1.7,4.6,1.6,7
		c-0.1,2.4-0.8,4.6-2.1,6.7s-3.2,3.7-5.5,4.9c-2.4,1.2-4.8,1.8-7.2,1.7c-2.5-0.1-4.7-0.8-6.7-2.1s-3.6-3.1-4.8-5.4
		c-1.3-2.6-1.9-5.2-1.6-7.8c0.2-2.6,1.3-5,3.1-7.1L23.9,209.3L23.9,209.3z"/>
	<path class="st0" d="M33.9,176.8l-9.2,9.1l1.1,4.2l10.9-2.8l0.9,3.5l-26.5,6.7l-2.2-8.6c-0.5-2-0.6-3.8-0.3-5.3s1-2.8,2-3.8
		s2.2-1.7,3.7-2c1.8-0.5,3.6-0.3,5.2,0.4s3,2.1,4,4l9.4-9.5L33.9,176.8L33.9,176.8z M22.9,190.7l-1.3-5.1c-0.5-1.9-1.3-3.2-2.5-3.9
		c-1.2-0.7-2.5-0.9-4.1-0.5c-1.6,0.4-2.7,1.2-3.3,2.3c-0.6,1.1-0.7,2.7-0.2,4.6l1.3,5.1L22.9,190.7L22.9,190.7z"/>
	<path class="st0" d="M7.6,164.6l9.1-0.5l-0.6-10l2.9-0.2l0.6,10l9.4-0.6l-0.7-11.1l2.9-0.2l0.9,14.7l-27.4,1.6L4,153.6l2.9-0.2
		L7.6,164.6L7.6,164.6z"/>
	<path class="st0" d="M7.6,139.4l9.1,1l1.1-9.9l2.9,0.3l-1.1,9.9l9.4,1.1l1.2-11.1l2.9,0.3l-1.6,14.6l-27.2-3.1L5.9,128l2.9,0.3
		L7.6,139.4L7.6,139.4z"/>
	<path class="st0" d="M40.9,104.6l-1.1,3.4l-25.2,6.9l20.7,6.8l-1.1,3.4l-26-8.5l1.1-3.4l25.1-6.9l-20.7-6.8l1.1-3.4L40.9,104.6
		L40.9,104.6z"/>
	<path class="st0" d="M58.1,76.6l-12.9-1.4l-2.5,3.5l9,6.6l-2.1,2.9L27.5,72.1l5.2-7.1c1.2-1.7,2.5-2.9,4-3.6s2.8-1,4.2-0.9
		s2.7,0.7,4,1.6c1.5,1.1,2.5,2.5,3.1,4.3c0.5,1.7,0.3,3.6-0.6,5.6l13.3,1.2L58.1,76.6L58.1,76.6z M40.3,77.1l3.1-4.2
		c1.2-1.6,1.6-3,1.4-4.4c-0.2-1.3-0.9-2.5-2.2-3.4c-1.3-1-2.6-1.3-3.9-1.1c-1.3,0.2-2.5,1.2-3.7,2.7L32,70.9L40.3,77.1L40.3,77.1z"
		/>
	<path class="st0" d="M50.7,48.6l6.2,6.7l7.3-6.8l2,2.2l-7.3,6.8l6.4,6.9l8.2-7.6l2,2.2L64.8,68.9l-18.7-20l10.8-10l2,2.2L50.7,48.6
		L50.7,48.6z"/>
	<path class="st0" d="M83.2,52.4c-1.6,0.2-3,0.1-4.3-0.5c-1.3-0.5-2.4-1.4-3.2-2.7l3.2-2c0.8,1,1.8,1.6,3.1,1.9
		c1.3,0.2,2.6-0.1,4.1-1.1c1.4-0.9,2.3-2,2.7-3.2c0.4-1.2,0.2-2.4-0.5-3.6c-0.6-0.9-1.3-1.5-2.1-1.7c-0.8-0.2-1.7-0.3-2.6-0.1
		s-2.1,0.5-3.5,1c-1.8,0.6-3.2,1-4.4,1.1s-2.3,0.1-3.5-0.4C71,40.7,70,39.8,69,38.3c-0.8-1.3-1.2-2.6-1.2-4c0-1.4,0.4-2.7,1.3-4
		c0.8-1.3,2-2.4,3.5-3.3c2.2-1.4,4.3-2,6.3-1.8s3.8,1.1,5.1,2.8l-3.3,2.1c-0.7-0.8-1.6-1.3-2.9-1.5c-1.2-0.1-2.5,0.2-3.9,1.1
		c-1.3,0.8-2.1,1.8-2.5,2.9s-0.2,2.3,0.6,3.5c0.5,0.8,1.2,1.4,2,1.6s1.7,0.3,2.5,0.1c0.9-0.2,2.1-0.5,3.5-0.9
		c1.8-0.5,3.3-0.9,4.5-1.1s2.4-0.1,3.6,0.4c1.2,0.4,2.3,1.4,3.2,2.8c0.7,1.1,1.1,2.4,1.1,3.8s-0.3,2.7-1.1,4.1
		c-0.8,1.4-2,2.5-3.6,3.6C86.4,51.5,84.8,52.1,83.2,52.4L83.2,52.4z"/>
	<path class="st0" d="M106.4,11.2l1.1,2.7l-6.9,2.7l9,22.8l-3.3,1.3l-9-22.8l-7,2.8L89.2,18L106.4,11.2L106.4,11.2z"/>
	<path class="st0" d="M136.3,26.4l-11.8,2l-1.1,6.4l-3.7,0.7L124.8,7l4.1-0.7l14.4,25.1l-3.7,0.7L136.3,26.4L136.3,26.4z
		 M134.8,23.7l-7.2-12.8L125,25.4C125,25.4,134.8,23.7,134.8,23.7z"/>
	<path class="st0" d="M152.9,4.1l-0.9,17.3c-0.1,2.4,0.4,4.3,1.5,5.5s2.8,1.9,4.9,2c2.1,0.1,3.8-0.4,5-1.5s1.9-2.9,2.1-5.3l0.9-17.3
		L170,5l-0.9,17.3c-0.1,2.3-0.7,4.2-1.6,5.7c-1,1.5-2.3,2.6-3.9,3.3c-1.6,0.7-3.4,1-5.3,0.9c-1.9-0.1-3.7-0.6-5.2-1.4
		c-1.5-0.8-2.7-2-3.5-3.6s-1.2-3.5-1.1-5.8L149.4,4L152.9,4.1L152.9,4.1z"/>
	<path class="st0" d="M189.1,37.2l-3.4-12.5l-4.2-1.1l-2.9,10.8l-3.4-0.9L182.2,7l8.5,2.3c2,0.5,3.6,1.3,4.8,2.4
		c1.2,1.1,2,2.2,2.4,3.6c0.4,1.3,0.4,2.8-0.1,4.3c-0.5,1.8-1.4,3.3-2.9,4.4c-1.4,1.1-3.2,1.6-5.5,1.5l3.7,12.9L189.1,37.2
		L189.1,37.2z M182.2,20.8l5.1,1.4c1.9,0.5,3.4,0.4,4.6-0.2c1.2-0.7,2-1.8,2.4-3.3c0.4-1.6,0.3-2.9-0.4-4c-0.7-1.1-2-1.9-3.9-2.4
		l-5.1-1.4L182.2,20.8L182.2,20.8z"/>
	<path class="st0" d="M215.8,42.4l-10.6-5.5l-4.8,4.4l-3.4-1.7l21.3-19.6l3.7,1.9l-3.7,28.7l-3.4-1.7L215.8,42.4L215.8,42.4z
		 M216.2,39.3l1.9-14.5l-10.7,10L216.2,39.3L216.2,39.3z"/>
	<path class="st0" d="M238.6,67.3l-2.7-2.3l3.2-25.9L225,55.7l-2.7-2.3L240,32.5l2.7,2.3l-3.1,25.9l14.1-16.6l2.7,2.3L238.6,67.3
		L238.6,67.3z"/>
	<path class="st0" d="M275,68.9l-2.3,1.8l-4.6-5.9l-19.3,15l-2.2-2.8L266,62l-4.6-5.9l2.3-1.8L275,68.9z"/>
</g>
</svg>
