<?xml version="1.0" encoding="utf-8"?>
<!-- Generator: Adobe Illustrator 26.5.0, SVG Export Plug-In . SVG Version: 6.00 Build 0)  -->
<svg version="1.1" id="Calque_1" xmlns="http://www.w3.org/2000/svg" xmlns:xlink="http://www.w3.org/1999/xlink" x="0px" y="0px"
	 viewBox="0 0 456.9 135.7" style="enable-background:new 0 0 456.9 135.7;" xml:space="preserve">
<style type="text/css">
	.st0{fill:#386641;}
</style>
<path class="st0" d="M110.2,86.3c-1.7,3.2-4.4,5.8-8,7.8c-3.6,2-8.2,3-13.8,3H77.2v26.4H63.7V54.6h24.8c5.2,0,9.6,0.9,13.3,2.8
	c3.7,1.8,6.4,4.4,8.2,7.6s2.8,6.9,2.8,10.9C112.8,79.6,112,83.1,110.2,86.3L110.2,86.3z M96.2,83.3c1.8-1.7,2.7-4.2,2.7-7.3
	c0-6.7-3.7-10.1-11-10.1H77.2v20h10.7C91.6,85.9,94.4,85,96.2,83.3z"/>
<path class="st0" d="M140.3,119.6c-5.3-3-9.5-7.2-12.6-12.6c-3.1-5.4-4.6-11.4-4.6-18.2s1.5-12.7,4.6-18.1
	c3.1-5.4,7.3-9.6,12.6-12.6s11.1-4.5,17.4-4.5s12.2,1.5,17.4,4.5c5.2,3,9.4,7.2,12.5,12.6s4.6,11.4,4.6,18.1s-1.5,12.8-4.6,18.2
	c-3.1,5.4-7.2,9.6-12.5,12.6s-11.1,4.5-17.4,4.5S145.6,122.6,140.3,119.6L140.3,119.6z M168.4,109c3.1-1.9,5.5-4.6,7.2-8
	s2.6-7.5,2.6-12.1s-0.9-8.6-2.6-12.1s-4.1-6.1-7.2-7.9s-6.7-2.8-10.7-2.8s-7.6,0.9-10.8,2.8s-5.6,4.5-7.3,7.9
	c-1.7,3.4-2.6,7.5-2.6,12.1s0.9,8.6,2.6,12.1c1.7,3.5,4.2,6.2,7.3,8s6.7,2.8,10.8,2.8C161.8,111.8,165.3,110.9,168.4,109z"/>
<path class="st0" d="M254.9,86.3c-1.7,3.2-4.4,5.8-8,7.8c-3.6,2-8.2,3-13.8,3h-11.3v26.4h-13.5V54.6h24.8c5.2,0,9.6,0.9,13.3,2.8
	s6.4,4.4,8.2,7.6c1.8,3.2,2.8,6.9,2.8,10.9C257.4,79.6,256.6,83.1,254.9,86.3L254.9,86.3z M240.8,83.3c1.8-1.7,2.7-4.2,2.7-7.3
	c0-6.7-3.7-10.1-11-10.1h-10.7v20h10.7C236.3,85.9,239,85,240.8,83.3z"/>
<path class="st0" d="M287.2,54.6v68.8h-13.5V54.6C273.7,54.6,287.2,54.6,287.2,54.6z"/>
<path class="st0" d="M364.9,123.4h-13.5l-30.6-47.2v47.2h-13.5V54.5h13.5l30.6,47.3V54.5h13.5V123.4z"/>
<path class="st0" d="M431.9,75.3c-1.5-2.9-3.7-5.1-6.4-6.6c-2.7-1.5-5.9-2.3-9.5-2.3c-4,0-7.5,0.9-10.6,2.8s-5.5,4.5-7.2,7.9
	s-2.6,7.4-2.6,11.8s0.9,8.6,2.6,12s4.2,6.1,7.4,7.9s6.8,2.8,11,2.8c5.2,0,9.4-1.4,12.6-4.2c3.3-2.8,5.4-6.7,6.5-11.7h-23.2V85.2
	h36.5v12c-0.9,4.8-2.8,9.2-5.8,13.3c-3,4.1-6.8,7.3-11.4,9.8c-4.7,2.5-9.9,3.7-15.7,3.7c-6.5,0-12.4-1.5-17.6-4.5
	c-5.2-3-9.4-7.1-12.4-12.5c-3-5.3-4.5-11.4-4.5-18.1s1.5-12.8,4.5-18.2s7.1-9.5,12.4-12.5c5.2-3,11.1-4.5,17.5-4.5
	c7.6,0,14.2,1.9,19.8,5.7s9.5,9.1,11.6,15.9L431.9,75.3L431.9,75.3z"/>
<path class="st0" d="M16.1,115.4c-0.6,0.8-0.9,1.6-0.9,2.4c-0.1,0.9,0.1,1.8,0.6,2.7s1.1,1.6,1.9,2.1s1.7,0.8,2.7,0.8
	c1,0,2-0.2,3-0.8c1-0.5,1.8-1.2,2.3-2s0.8-1.7,0.9-2.6s-0.2-1.9-0.6-2.7c-0.7-1.2-1.6-2.1-2.7-2.5c-1.2-0.4-2.4-0.4-3.8,0.2l2.7,5.1
	l-1.4,0.7l-3.6-6.9l1.3-0.7c1.1-0.4,2.2-0.6,3.4-0.5s2.2,0.5,3.2,1.1c1,0.7,1.8,1.6,2.4,2.7c0.6,1.2,0.9,2.4,0.8,3.7
	c-0.1,1.3-0.4,2.4-1.1,3.5c-0.7,1.1-1.7,2-2.9,2.6c-1.2,0.6-2.5,0.9-3.8,0.9s-2.5-0.4-3.6-1.1c-1.1-0.7-1.9-1.6-2.5-2.8
	c-0.7-1.4-1-2.8-0.9-4.1s0.7-2.7,1.7-3.8L16.1,115.4L16.1,115.4z"/>
<path class="st0" d="M21.4,98.2l-4.9,4.8l0.6,2.2l5.7-1.4l0.5,1.8l-14,3.6L8,104.6c-0.3-1.1-0.3-2-0.1-2.8c0.2-0.8,0.5-1.5,1.1-2
	c0.5-0.5,1.2-0.9,2-1.1c1-0.2,1.9-0.2,2.8,0.2s1.6,1.1,2.1,2.1l5-5L21.4,98.2L21.4,98.2z M15.6,105.6l-0.7-2.7
	c-0.2-1-0.7-1.7-1.3-2.1c-0.6-0.4-1.3-0.5-2.2-0.2c-0.8,0.2-1.4,0.6-1.8,1.2c-0.3,0.6-0.4,1.4-0.1,2.4l0.7,2.7L15.6,105.6
	L15.6,105.6z"/>
<path class="st0" d="M7.4,91.8l4.8-0.3l-0.3-5.3l1.6-0.1l0.3,5.3l5-0.3l-0.3-5.9l1.6-0.1l0.5,7.8L6,93.7L5.5,86l1.6-0.1L7.4,91.8
	L7.4,91.8z"/>
<path class="st0" d="M7.5,78.5l4.8,0.5l0.6-5.2l1.6,0.2l-0.6,5.2l4.9,0.6l0.7-5.9L21,74l-0.9,7.7L5.7,80.2l0.9-7.7l1.6,0.2L7.5,78.5
	L7.5,78.5z"/>
<path class="st0" d="M25,60l-0.6,1.8l-13.3,3.6l10.9,3.6l-0.6,1.8L7.7,66.4l0.6-1.8l13.3-3.6l-10.9-3.6l0.6-1.8L25,60L25,60z"/>
<path class="st0" d="M34.1,45.3l-6.8-0.7L26,46.4l4.8,3.5l-1.1,1.5L18,42.9l2.8-3.8c0.7-0.9,1.3-1.5,2.1-1.9s1.5-0.5,2.2-0.5
	s1.4,0.3,2.1,0.8c0.8,0.6,1.3,1.3,1.6,2.2c0.3,0.9,0.2,1.9-0.3,3l7,0.7L34.1,45.3L34.1,45.3z M24.8,45.5l1.6-2.2
	c0.6-0.8,0.9-1.6,0.8-2.3s-0.5-1.3-1.2-1.8c-0.7-0.5-1.4-0.7-2.1-0.6S22.6,39.2,22,40l-1.6,2.2L24.8,45.5L24.8,45.5z"/>
<path class="st0" d="M30.2,30.4l3.3,3.5l3.9-3.6l1.1,1.1l-3.9,3.6l3.4,3.6l4.3-4l1.1,1.1l-5.7,5.3l-9.9-10.6l5.7-5.3l1.1,1.1
	L30.2,30.4L30.2,30.4z"/>
<path class="st0" d="M47.5,32.4c-0.8,0.1-1.6,0-2.3-0.2c-0.7-0.3-1.2-0.8-1.7-1.4l1.7-1.1c0.4,0.5,1,0.9,1.6,1
	c0.7,0.1,1.4-0.1,2.2-0.6c0.8-0.5,1.2-1.1,1.4-1.7c0.2-0.7,0.1-1.3-0.3-1.9c-0.3-0.5-0.7-0.8-1.1-0.9s-0.9-0.2-1.4-0.1
	c-0.5,0.1-1.1,0.3-1.9,0.5c-0.9,0.3-1.7,0.5-2.3,0.6s-1.2,0-1.9-0.2c-0.6-0.2-1.2-0.7-1.7-1.5c-0.4-0.7-0.6-1.4-0.6-2.1
	c0-0.7,0.2-1.4,0.7-2.1s1.1-1.3,1.8-1.8c1.1-0.7,2.3-1,3.4-0.9c1.1,0.1,2,0.6,2.7,1.5l-1.8,1.1c-0.4-0.4-0.9-0.7-1.5-0.8
	s-1.3,0.1-2.1,0.6c-0.7,0.4-1.1,0.9-1.3,1.6s-0.1,1.2,0.3,1.8c0.3,0.4,0.6,0.7,1.1,0.8s0.9,0.1,1.3,0.1c0.5-0.1,1.1-0.2,1.9-0.5
	c0.9-0.3,1.7-0.5,2.4-0.6s1.3,0,1.9,0.2c0.6,0.2,1.2,0.7,1.7,1.5c0.4,0.6,0.6,1.3,0.6,2c0,0.7-0.2,1.4-0.6,2.2s-1,1.3-1.9,1.9
	C49.1,32,48.3,32.3,47.5,32.4L47.5,32.4z"/>
<path class="st0" d="M59.7,10.7l0.6,1.4l-3.7,1.4l4.8,12l-1.8,0.7l-4.8-12l-3.7,1.5l-0.6-1.4L59.7,10.7L59.7,10.7z"/>
<path class="st0" d="M75.5,18.7l-6.2,1.1l-0.6,3.4l-2,0.3l2.7-15.1l2.1-0.4l7.6,13.3l-2,0.3L75.5,18.7L75.5,18.7z M74.7,17.3
	l-3.8-6.8l-1.3,7.7L74.7,17.3L74.7,17.3z"/>
<path class="st0" d="M84.3,6.9l-0.4,9.2c-0.1,1.3,0.2,2.3,0.8,2.9s1.5,1,2.6,1.1c1.1,0.1,2-0.2,2.6-0.8c0.7-0.6,1-1.5,1.1-2.8
	l0.4-9.2l1.9,0.1l-0.4,9.1c-0.1,1.2-0.4,2.2-0.9,3c-0.5,0.8-1.2,1.4-2.1,1.7s-1.8,0.5-2.8,0.5c-1-0.1-1.9-0.3-2.7-0.7
	c-0.8-0.4-1.4-1.1-1.9-1.9s-0.6-1.9-0.6-3.1l0.4-9.1L84.3,6.9L84.3,6.9z"/>
<path class="st0" d="M103.4,24.4l-1.8-6.6l-2.2-0.6l-1.5,5.7L96,22.4l3.8-14l4.5,1.2c1.1,0.3,1.9,0.7,2.5,1.3c0.6,0.6,1,1.2,1.2,1.9
	c0.2,0.7,0.2,1.5,0,2.2c-0.3,1-0.8,1.7-1.5,2.3c-0.8,0.6-1.7,0.8-2.9,0.8l1.9,6.8L103.4,24.4L103.4,24.4z M99.8,15.7l2.7,0.7
	c1,0.3,1.8,0.2,2.4-0.1c0.6-0.4,1.1-0.9,1.3-1.8c0.2-0.8,0.1-1.5-0.2-2.1c-0.4-0.6-1.1-1-2.1-1.3l-2.7-0.7L99.8,15.7L99.8,15.7z"/>
<path class="st0" d="M117.5,27.2l-5.6-2.9l-2.5,2.3l-1.8-0.9l11.3-10.4l1.9,1l-2,15.2l-1.8-0.9L117.5,27.2L117.5,27.2z M117.7,25.6
	l1-7.7l-5.7,5.3L117.7,25.6z"/>
<path class="st0" d="M129.6,40.3l-1.4-1.2l1.7-13.7l-7.5,8.8l-1.4-1.2l9.4-11l1.4,1.2l-1.7,13.7l7.4-8.8l1.4,1.2L129.6,40.3
	L129.6,40.3z"/>
<path class="st0" d="M148.8,41.2l-1.2,0.9l-2.4-3.1L135,46.9l-1.2-1.5l10.2-7.9l-2.4-3.1l1.2-0.9L148.8,41.2z"/>
</svg>
